<svg width="88" height="66" viewBox="0 0 88 66" fill="none" xmlns="http://www.w3.org/2000/svg">
<path d="M80.6667 0H7.33333C3.33667 0.146667 0.146667 3.33667 0 7.33333V58.6667C0.146667 62.6633 3.33667 65.8533 7.33333 66H80.6667C84.6633 65.8533 87.8533 62.6633 88 58.6667V7.33333C87.9325 5.4099 87.1382 3.58359 85.7773 2.22268C84.4164 0.861767 82.5901 0.0674866 80.6667 0ZM80.6667 58.6667H7.33333V7.33333H80.6667V58.6667ZM51.3333 51.3333V46.75C51.3333 40.6633 39.0867 37.5833 33 37.5833C26.9133 37.5833 14.6667 40.6633 14.6667 46.75V51.3333H51.3333ZM33 14.6667C30.5688 14.6667 28.2373 15.6324 26.5182 17.3515C24.7991 19.0706 23.8333 21.4022 23.8333 23.8333C23.8333 25.0371 24.0704 26.2291 24.5311 27.3413C24.9918 28.4534 25.667 29.4639 26.5182 30.3151C28.2373 32.0342 30.5688 33 33 33C34.2038 33 35.3958 32.7629 36.5079 32.3022C37.6201 31.8416 38.6306 31.1663 39.4818 30.3151C40.333 29.4639 41.0082 28.4534 41.4689 27.3413C41.9296 26.2291 42.1667 25.0371 42.1667 23.8333C42.1667 22.6296 41.9296 21.4376 41.4689 20.3254C41.0082 19.2132 40.333 18.2027 39.4818 17.3515C38.6306 16.5003 37.6201 15.8251 36.5079 15.3644C35.3958 14.9038 34.2038 14.6667 33 14.6667ZM51.3333 14.6667V18.3333H73.3333V14.6667H51.3333ZM51.3333 22V25.6667H73.3333V22H51.3333ZM51.3333 29.3333V33H66V29.3333H51.3333Z" fill="#DED27C"/>
</svg>
